<?xml version="1.0" encoding="utf-8"?>
<!-- Generator: Adobe Illustrator 24.0.0, SVG Export Plug-In . SVG Version: 6.00 Build 0)  -->
<svg version="1.1" id="Layer_1" xmlns:figma="http://www.figma.com/figma/ns"
	 xmlns="http://www.w3.org/2000/svg" xmlns:xlink="http://www.w3.org/1999/xlink" x="0px" y="0px" viewBox="0 0 82.9 24"
	 style="enable-background:new 0 0 82.9 24;" xml:space="preserve">
<style type="text/css">
	.st0{fill:#006BA4;}
</style>
<title>Logo</title>
<g>
	<path id="XMLID_171_" class="st0" d="M18.7,9.7V1.1c0-0.5-0.4-0.9-0.9-0.9H9.1c-0.8,0-1.2,1-0.6,1.6l8.6,8.6
		C17.7,11,18.7,10.6,18.7,9.7z"/>
	<path id="XMLID_170_" class="st0" d="M82.3,9.8V1.1c0-0.5-0.4-0.9-0.9-0.9h-8.7c-0.8,0-1.2,1-0.6,1.5l8.7,8.7
		C81.3,11,82.3,10.6,82.3,9.8z"/>
	<path id="XMLID_169_" class="st0" d="M67.8,0.2h-8c-0.6,0-1.1,0.5-1.1,1.1v8c0,1,1.2,1.5,1.9,0.8l8-8C69.2,1.4,68.8,0.2,67.8,0.2z"
		/>
	<path id="XMLID_168_" class="st0" d="M26.9,14.2v8.5c0,0.5,0.4,1,1,1h8.5c0.9,0,1.3-1,0.7-1.6l-8.5-8.5
		C27.9,13,26.9,13.4,26.9,14.2z"/>
	<path id="XMLID_167_" class="st0" d="M50.5,14.2v8.6c0,0.5-0.4,0.9-0.9,0.9h-8.6c-0.8,0-1.2-1-0.7-1.6l8.6-8.6
		C49.5,12.9,50.5,13.4,50.5,14.2z"/>
	<path id="XMLID_166_" class="st0" d="M0.4,8.8v14c0,0.5,0.4,0.9,0.9,0.9h14.1c0.8,0,1.2-1,0.7-1.6L2,8.1C1.4,7.5,0.4,7.9,0.4,8.8z"
		/>
	<path class="st0" d="M48.9,1.8c0.6-0.6,0.2-1.6-0.7-1.6h-2.5h-2.3H34h-2.3h-2.5c-0.8,0-1.2,1-0.7,1.6l9.6,9.5
		c0.4,0.4,0.9,0.4,1.3,0L48.9,1.8z"/>
	<path class="st0" d="M59.6,22c-0.6,0.6-0.2,1.7,0.7,1.7h2.7h2.5h10.1H78h2.7c0.9,0,1.3-1.1,0.7-1.7L71.2,11.9c-0.4-0.4-1-0.4-1.4,0
		L59.6,22z"/>
</g>
</svg>
